<svg xmlns="http://www.w3.org/2000/svg" viewBox="0 0 1200 800" font-family="-apple-system, 'RedHatText', 'Helvetica Neue', sans-serif">
  <title>Option C: Compact Label Strip — Large Fleet (54 hosts, collapsed then expanded)</title>

  <!-- Background -->
  <rect width="1200" height="800" fill="#f0f0f0"/>

  <!-- ═══════════════════════════════════════════════════════ -->
  <!-- TOP HALF: Collapsed state (default for >8 hosts) -->
  <!-- ═══════════════════════════════════════════════════════ -->

  <!-- State label -->
  <rect x="400" y="4" rx="4" ry="4" width="400" height="20" fill="#e7f1fa"/>
  <text x="600" y="17" font-size="10" fill="#0066cc" text-anchor="middle" font-weight="600">COLLAPSED STATE (default for large fleets)</text>

  <!-- StatsBar -->
  <rect x="0" y="28" width="1200" height="44" fill="#ffffff"/>
  <line x1="0" y1="72" x2="1200" y2="72" stroke="#d2d2d2" stroke-width="1"/>

  <text x="16" y="55" font-size="13" fill="#151515">
    <tspan font-weight="700">54</tspan>
    <tspan fill="#6a6e73"> hosts · </tspan>
    <tspan font-weight="700">8,392</tspan>
    <tspan fill="#6a6e73"> items · </tspan>
  </text>
  <rect x="216" y="42" rx="10" ry="10" width="110" height="20" fill="#e7f1fa"/>
  <text x="271" y="56" font-size="11" fill="#0066cc" text-anchor="middle">12 need review</text>

  <rect x="1000" y="36" rx="4" ry="4" width="30" height="28" fill="none" stroke="#d2d2d2" stroke-width="1"/>
  <text x="1015" y="55" font-size="14" fill="#6a6e73" text-anchor="middle">&#8630;</text>
  <rect x="1036" y="36" rx="4" ry="4" width="30" height="28" fill="none" stroke="#d2d2d2" stroke-width="1"/>
  <text x="1051" y="55" font-size="14" fill="#6a6e73" text-anchor="middle">&#8631;</text>
  <rect x="1072" y="36" rx="4" ry="4" width="30" height="28" fill="none" stroke="#d2d2d2" stroke-width="1"/>
  <text x="1087" y="55" font-size="11" fill="#6a6e73" text-anchor="middle">&#8615;</text>
  <rect x="1112" y="36" rx="4" ry="4" width="30" height="28" fill="none" stroke="#d2d2d2" stroke-width="1"/>
  <text x="1127" y="55" font-size="14" fill="#6a6e73" text-anchor="middle">&#9789;</text>

  <!-- Label strip (collapsed) -->
  <rect x="0" y="72" width="1200" height="34" fill="#fafafa"/>
  <line x1="0" y1="106" x2="1200" y2="106" stroke="#d2d2d2" stroke-width="1"/>

  <text x="16" y="93" font-size="12" fill="#6a6e73" font-weight="600">Hosts:</text>

  <!-- First 5 labels shown -->
  <rect x="62" y="79" rx="12" ry="12" width="142" height="20" fill="#f0f0f0" stroke="#d2d2d2" stroke-width="1"/>
  <text x="133" y="93" font-size="9" fill="#151515" text-anchor="middle" font-family="'RedHatMono', 'SF Mono', monospace">prod-web-east-01...</text>

  <rect x="210" y="79" rx="12" ry="12" width="142" height="20" fill="#f0f0f0" stroke="#d2d2d2" stroke-width="1"/>
  <text x="281" y="93" font-size="9" fill="#151515" text-anchor="middle" font-family="'RedHatMono', 'SF Mono', monospace">prod-web-east-02...</text>

  <rect x="358" y="79" rx="12" ry="12" width="142" height="20" fill="#f0f0f0" stroke="#d2d2d2" stroke-width="1"/>
  <text x="429" y="93" font-size="9" fill="#151515" text-anchor="middle" font-family="'RedHatMono', 'SF Mono', monospace">prod-web-east-03...</text>

  <rect x="506" y="79" rx="12" ry="12" width="142" height="20" fill="#f0f0f0" stroke="#d2d2d2" stroke-width="1"/>
  <text x="577" y="93" font-size="9" fill="#151515" text-anchor="middle" font-family="'RedHatMono', 'SF Mono', monospace">prod-web-east-04...</text>

  <rect x="654" y="79" rx="12" ry="12" width="142" height="20" fill="#f0f0f0" stroke="#d2d2d2" stroke-width="1"/>
  <text x="725" y="93" font-size="9" fill="#151515" text-anchor="middle" font-family="'RedHatMono', 'SF Mono', monospace">prod-web-east-05...</text>

  <!-- "+49 more" link -->
  <text x="808" y="93" font-size="11" fill="#0066cc" cursor="pointer">+49 more</text>

  <!-- Sidebar stub (collapsed view) -->
  <rect x="0" y="106" width="240" height="200" fill="#ffffff"/>
  <line x1="240" y1="106" x2="240" y2="306" stroke="#d2d2d2" stroke-width="1"/>
  <text x="16" y="130" font-size="11" fill="#6a6e73" font-weight="600" letter-spacing="0.08em">REVIEW</text>
  <rect x="0" y="138" width="240" height="28" fill="#e7f1fa"/>
  <rect x="0" y="138" width="3" height="28" fill="#0066cc"/>
  <text x="16" y="157" font-size="12" fill="#0066cc" font-weight="600">Packages</text>
  <text x="16" y="183" font-size="12" fill="#151515">Config Files</text>
  <text x="16" y="207" font-size="12" fill="#151515">Services</text>

  <!-- Main content stub (collapsed view) -->
  <rect x="240" y="106" width="960" height="200" fill="#f0f0f0"/>
  <rect x="256" y="116" width="928" height="36" fill="#ffffff"/>
  <text x="276" y="139" font-size="12" fill="#151515" font-weight="600">httpd</text>
  <rect x="256" y="152" width="928" height="36" fill="#ffffff"/>
  <text x="276" y="175" font-size="12" fill="#151515" font-weight="600">mod_ssl</text>
  <rect x="256" y="188" width="928" height="36" fill="#ffffff"/>
  <text x="276" y="211" font-size="12" fill="#151515" font-weight="600">nginx</text>

  <!-- Divider between the two states -->
  <line x1="0" y1="330" x2="1200" y2="330" stroke="#6a6e73" stroke-width="1" stroke-dasharray="8,4"/>
  <rect x="470" y="320" rx="4" ry="4" width="260" height="20" fill="#f0f0f0"/>
  <text x="600" y="334" font-size="11" fill="#6a6e73" text-anchor="middle">click "+49 more" to expand...</text>

  <!-- ═══════════════════════════════════════════════════════ -->
  <!-- BOTTOM HALF: Expanded state -->
  <!-- ═══════════════════════════════════════════════════════ -->

  <!-- State label -->
  <rect x="400" y="350" rx="4" ry="4" width="400" height="20" fill="#fef3cd"/>
  <text x="600" y="363" font-size="10" fill="#664d03" text-anchor="middle" font-weight="600">EXPANDED STATE — content pushed down significantly</text>

  <!-- StatsBar (repeated) -->
  <rect x="0" y="374" width="1200" height="44" fill="#ffffff"/>
  <line x1="0" y1="418" x2="1200" y2="418" stroke="#d2d2d2" stroke-width="1"/>
  <text x="16" y="401" font-size="13" fill="#151515">
    <tspan font-weight="700">54</tspan>
    <tspan fill="#6a6e73"> hosts · </tspan>
    <tspan font-weight="700">8,392</tspan>
    <tspan fill="#6a6e73"> items · </tspan>
  </text>
  <rect x="216" y="388" rx="10" ry="10" width="110" height="20" fill="#e7f1fa"/>
  <text x="271" y="402" font-size="11" fill="#0066cc" text-anchor="middle">12 need review</text>

  <!-- Label strip (expanded — wrapping rows) -->
  <rect x="0" y="418" width="1200" height="120" fill="#fafafa"/>
  <line x1="0" y1="538" x2="1200" y2="538" stroke="#d2d2d2" stroke-width="1"/>

  <!-- Highlight: this is the problem area -->
  <rect x="0" y="418" width="1200" height="120" fill="none" stroke="#ee0000" stroke-width="2" stroke-dasharray="4,3"/>

  <text x="16" y="439" font-size="12" fill="#6a6e73" font-weight="600">Hosts:</text>

  <!-- Row 1 of labels -->
  <rect x="62" y="425" rx="12" ry="12" width="142" height="20" fill="#f0f0f0" stroke="#d2d2d2" stroke-width="1"/>
  <text x="133" y="439" font-size="9" fill="#151515" text-anchor="middle" font-family="'RedHatMono', 'SF Mono', monospace">prod-web-east-01...</text>
  <rect x="210" y="425" rx="12" ry="12" width="142" height="20" fill="#f0f0f0" stroke="#d2d2d2" stroke-width="1"/>
  <text x="281" y="439" font-size="9" fill="#151515" text-anchor="middle" font-family="'RedHatMono', 'SF Mono', monospace">prod-web-east-02...</text>
  <rect x="358" y="425" rx="12" ry="12" width="142" height="20" fill="#f0f0f0" stroke="#d2d2d2" stroke-width="1"/>
  <text x="429" y="439" font-size="9" fill="#151515" text-anchor="middle" font-family="'RedHatMono', 'SF Mono', monospace">prod-web-east-03...</text>
  <rect x="506" y="425" rx="12" ry="12" width="142" height="20" fill="#f0f0f0" stroke="#d2d2d2" stroke-width="1"/>
  <text x="577" y="439" font-size="9" fill="#151515" text-anchor="middle" font-family="'RedHatMono', 'SF Mono', monospace">prod-web-east-04...</text>
  <rect x="654" y="425" rx="12" ry="12" width="142" height="20" fill="#f0f0f0" stroke="#d2d2d2" stroke-width="1"/>
  <text x="725" y="439" font-size="9" fill="#151515" text-anchor="middle" font-family="'RedHatMono', 'SF Mono', monospace">prod-web-east-05...</text>

  <!-- Row 2 of labels -->
  <rect x="62" y="451" rx="12" ry="12" width="142" height="20" fill="#f0f0f0" stroke="#d2d2d2" stroke-width="1"/>
  <text x="133" y="465" font-size="9" fill="#151515" text-anchor="middle" font-family="'RedHatMono', 'SF Mono', monospace">prod-web-west-01...</text>
  <rect x="210" y="451" rx="12" ry="12" width="142" height="20" fill="#f0f0f0" stroke="#d2d2d2" stroke-width="1"/>
  <text x="281" y="465" font-size="9" fill="#151515" text-anchor="middle" font-family="'RedHatMono', 'SF Mono', monospace">prod-web-west-02...</text>
  <rect x="358" y="451" rx="12" ry="12" width="142" height="20" fill="#f0f0f0" stroke="#d2d2d2" stroke-width="1"/>
  <text x="429" y="465" font-size="9" fill="#151515" text-anchor="middle" font-family="'RedHatMono', 'SF Mono', monospace">prod-web-west-03...</text>
  <rect x="506" y="451" rx="12" ry="12" width="142" height="20" fill="#f0f0f0" stroke="#d2d2d2" stroke-width="1"/>
  <text x="577" y="465" font-size="9" fill="#151515" text-anchor="middle" font-family="'RedHatMono', 'SF Mono', monospace">prod-web-west-04...</text>
  <rect x="654" y="451" rx="12" ry="12" width="142" height="20" fill="#f0f0f0" stroke="#d2d2d2" stroke-width="1"/>
  <text x="725" y="465" font-size="9" fill="#151515" text-anchor="middle" font-family="'RedHatMono', 'SF Mono', monospace">prod-web-west-05...</text>

  <!-- Row 3 of labels -->
  <rect x="62" y="477" rx="12" ry="12" width="142" height="20" fill="#f0f0f0" stroke="#d2d2d2" stroke-width="1"/>
  <text x="133" y="491" font-size="9" fill="#151515" text-anchor="middle" font-family="'RedHatMono', 'SF Mono', monospace">prod-api-east-01...</text>
  <rect x="210" y="477" rx="12" ry="12" width="142" height="20" fill="#f0f0f0" stroke="#d2d2d2" stroke-width="1"/>
  <text x="281" y="491" font-size="9" fill="#151515" text-anchor="middle" font-family="'RedHatMono', 'SF Mono', monospace">prod-api-east-02...</text>
  <rect x="358" y="477" rx="12" ry="12" width="142" height="20" fill="#f0f0f0" stroke="#d2d2d2" stroke-width="1"/>
  <text x="429" y="491" font-size="9" fill="#151515" text-anchor="middle" font-family="'RedHatMono', 'SF Mono', monospace">prod-api-east-03...</text>
  <rect x="506" y="477" rx="12" ry="12" width="142" height="20" fill="#f0f0f0" stroke="#d2d2d2" stroke-width="1"/>
  <text x="577" y="491" font-size="9" fill="#151515" text-anchor="middle" font-family="'RedHatMono', 'SF Mono', monospace">prod-api-west-01...</text>
  <text x="660" y="491" font-size="9" fill="#6a6e73" font-style="italic">... and 40 more rows</text>

  <!-- Collapse button -->
  <text x="1100" y="527" font-size="11" fill="#0066cc" cursor="pointer" text-anchor="end">Collapse</text>

  <!-- Problem callout -->
  <line x1="1200" y1="478" x2="1200" y2="478" stroke="#ee0000" stroke-width="1"/>
  <rect x="860" y="460" rx="4" ry="4" width="310" height="36" fill="#fff5f5" stroke="#ee0000" stroke-width="1"/>
  <text x="872" y="476" font-size="10" fill="#ee0000" font-weight="600">~120px of labels before content starts.</text>
  <text x="872" y="490" font-size="10" fill="#6a6e73">54 labels = ~11 rows at 5 per row. Very noisy.</text>

  <!-- Sidebar stub (pushed down) -->
  <rect x="0" y="538" width="240" height="262" fill="#ffffff"/>
  <line x1="240" y1="538" x2="240" y2="800" stroke="#d2d2d2" stroke-width="1"/>
  <text x="16" y="562" font-size="11" fill="#6a6e73" font-weight="600" letter-spacing="0.08em">REVIEW</text>
  <rect x="0" y="570" width="240" height="28" fill="#e7f1fa"/>
  <rect x="0" y="570" width="3" height="28" fill="#0066cc"/>
  <text x="16" y="589" font-size="12" fill="#0066cc" font-weight="600">Packages</text>

  <!-- Main content (pushed down) -->
  <rect x="240" y="538" width="960" height="262" fill="#f0f0f0"/>
  <rect x="256" y="548" width="928" height="36" fill="#ffffff"/>
  <text x="276" y="571" font-size="12" fill="#151515" font-weight="600">httpd</text>
  <rect x="256" y="584" width="928" height="36" fill="#ffffff"/>
  <text x="276" y="607" font-size="12" fill="#151515" font-weight="600">mod_ssl</text>

  <!-- ═══ Annotation ═══ -->
  <rect x="300" y="650" rx="4" ry="4" width="640" height="130" fill="#ffffff" stroke="#d2d2d2" stroke-width="1"/>
  <text x="320" y="676" font-size="14" fill="#151515" font-weight="700">Option C: Compact Label Strip — Large Fleet Problem</text>
  <text x="320" y="696" font-size="12" fill="#6a6e73">54 hosts with FQDNs — collapsed shows 5 labels + "+49 more" link.</text>
  <text x="320" y="716" font-size="12" fill="#ee0000">Expanded: ~120px of visually noisy labels push content off screen.</text>
  <text x="320" y="736" font-size="12" fill="#6a6e73">Individual labels have visual weight (borders, backgrounds) that compounds at scale.</text>
  <text x="320" y="756" font-size="12" fill="#6a6e73">Information users check once, then ignore — permanent space cost not justified.</text>
  <text x="320" y="776" font-size="12" fill="#0066cc">PF components: Label isCompact color="grey", Button variant="link"</text>
</svg>